<?xml version="1.0" encoding="UTF-8"?>
<svg id="Layer_2" xmlns="http://www.w3.org/2000/svg" xmlns:xlink="http://www.w3.org/1999/xlink" viewBox="0 0 587.32 1148.73">
  <defs>
    <style>
      .cls-1 {
        fill: url(#linear-gradient);
        stroke: #b33129;
        stroke-linecap: round;
        stroke-linejoin: round;
        stroke-width: 3px;
      }

      .cls-2 {
        fill: #fff;
      }
    </style>
    <linearGradient id="linear-gradient" x1="445.5" y1="714.76" x2="35.68" y2="-127.77" gradientTransform="translate(249.89 297.91) rotate(32.66)" gradientUnits="userSpaceOnUse">
      <stop offset=".36" stop-color="#ffcd03"/>
      <stop offset=".81" stop-color="#dc7354"/>
      <stop offset="1" stop-color="#942e40"/>
    </linearGradient>
  </defs>
  <g id="Layer_10">
    <g>
      <path class="cls-2" d="M552.92,835.88c25.34-30.36,37.34-68.78,33.79-108.17-4.08-45.31-28.84-87.21-66.49-113.13,17.04.36,33.85-7.83,43.72-23.22,7.42-11.57,9.5-25.02,6.93-37.49-5.58-43.56-29.72-81.87-66.94-105.74-2.3-1.47-4.67-2.77-7.02-4.11,21.88-31.31,33.86-69.88,31.79-111.06-.85-16.9-9.93-31.45-23.18-39.94-8.46-5.42-18.62-8.37-29.41-7.89-27.7,1.24-49.2,24.62-48.12,52.33,1.05,26.63-18.96,49.37-45.55,51.77-11.18,1.01-22.07-1.65-31.47-7.68-13.17-8.44-21.52-22.19-22.92-37.71-1.48-16.37,5.21-32.45,17.92-43.05.51-.42,2.54-2.01,3.03-2.41,20.65-17.13,37.43-39.09,48.54-63.51,12.75-28,18.02-59.02,15.26-89.71-4.98-55.23-34.66-104.1-81.42-134.07-2.34-1.5-4.72-2.95-7.13-4.34-21.33-12.31-48.43-7.4-64.09,11.61-15.66,19-15.3,46.54.86,65.12,10.66,12.26,17.06,27.3,18.53,43.5,2.4,26.66-8.96,52.24-30.41,68.43-1.14.86-2.3,1.69-3.48,2.49-.74.5-1.48,1.03-2.2,1.57-18.68,14.1-34.39,31.87-46.25,51.98-17.49-8.21-38.64-5.85-53.98,7.15-44.25,37.5-67.57,94.33-62.38,152.01,2.76,30.69,13.5,60.27,31.05,85.54,13.5,19.45,30.45,35.78,50.39,48.56,2.86,1.83,5.76,3.58,8.73,5.25.56.32,1.13.62,1.7.92.59.3,1.19.61,1.76.94.81.45,1.6.93,2.38,1.43,13.16,8.44,21.51,22.17,22.91,37.68,2.48,27.51-17.88,51.91-45.39,54.39-11.18,1.01-22.07-1.65-31.47-7.68-12.33-7.9-20.57-20.7-22.61-35.11-2.14-15.13-10.79-27.74-22.73-35.39-9.72-6.23-21.63-9.17-33.97-7.5-27.48,3.73-46.78,28.97-43.19,56.46,6.82,52.22,36.2,98.5,80.62,126.98,7.05,4.52,14.35,8.48,21.82,11.92-15.24,24.75-23.23,54.16-21.62,85.09-.37,17.02,7.82,33.82,23.2,43.68,11.66,7.47,25.23,9.54,37.78,6.87-31.46,31.16-49.8,76.11-45.55,123.29,4.14,45.91,28.79,86.51,67.62,111.4,27.89,17.88,60.1,25.75,93.13,22.77,39.39-3.55,75.04-22.23,100.39-52.59,25.34-30.36,37.34-68.78,33.79-108.17-1.45-16.14-10.36-29.81-23.03-37.93-9.09-5.82-20.11-8.79-31.69-7.74-1.92.17-3.79.45-5.63.83,4.42-4.41,8.61-9.13,12.56-14.16,12.96-16.52,22.35-35.6,27.79-55.67,24.91,12.87,52.61,18.35,80.94,15.79,39.39-3.55,75.04-22.23,100.38-52.59Z"/>
      <path class="cls-1" d="M188.59,720.28c-68.58,6.18-129.36-43.02-138.18-110.69,7.45,52.64,54.96,90.75,108.51,85.92,55.28-4.98,96.05-53.83,91.06-109.11-3.08-34.16-22.92-62.76-50.66-78.46-1.17-.66-2.36-1.3-3.56-1.91-16.84-9.48-31.38-22.7-42.45-38.64-12.21-17.59-20.19-38.47-22.25-61.31-3.88-43.07,14.1-83.05,44.76-109.04-13.2,22.23-19.81,48.65-17.31,76.37,4.1,45.5,31.67,83.23,69.67,102.37,2.08,1.05,4.18,2.05,6.32,2.98,19.05,9.6,35.47,23.85,47.66,41.41,12.21,17.59,20.19,38.47,22.25,61.31,6.34,70.31-45.52,132.44-115.83,138.78ZM326.82,581.59c4.84,53.72,52.71,97.71,106.43,92.87,29.98-2.7,65.69,33.33,68.18,60.94,3.53,39.16-29.8,74.18-68.96,77.71-39.16,3.53-86.95-24.17-90.48-63.33,4.84,53.72,52.31,93.34,106.03,88.5,53.72-4.84,93.34-52.32,88.5-106.03-4.84-53.72-52.71-97.71-106.43-92.87-33.31,3-65.35-29.63-68.18-60.94-3.53-39.16,29.8-74.17,68.96-77.7,39.16-3.53,86.95,24.17,90.48,63.33-4.84-53.72-52.32-93.34-106.03-88.5-53.72,4.84-93.34,52.32-88.5,106.03ZM329.76,122.45c4.1,45.5-16.27,87.55-50.24,113.18-1.86,1.4-3.75,2.76-5.68,4.06-17.03,12.85-30.64,29.81-39.49,49.27-8.87,19.49-12.99,41.46-10.93,64.31,6.34,70.31,68.47,122.17,138.78,115.83,68.58-6.18,119.58-65.46,116.16-133.62,2.09,53.12-37.85,99.12-91.4,103.94-55.28,4.98-104.12-35.79-109.11-91.06-3.08-34.16,11.33-65.84,35.82-86.26,1.03-.86,2.09-1.7,3.16-2.52,14.87-12.34,26.82-27.95,34.85-45.6,8.87-19.49,12.99-41.46,10.93-64.3-3.88-43.07-28.72-79.19-63.54-99.28,16.96,19.51,28.19,44.33,30.69,72.05ZM263.71,1070.37c-39.16,3.53-78.22-24.96-81.75-64.12-2.49-27.61,26.2-69.45,56.18-72.15,53.72-4.84,92.95-56.68,88.11-110.4-4.84-53.72-52.32-93.34-106.03-88.5-53.72,4.84-93.34,52.32-88.5,106.03-3.53-39.16,38.53-74.96,77.7-78.49,39.16-3.53,78.22,24.96,81.75,64.12,2.82,31.31-22.87,69.15-56.18,72.15-53.72,4.84-92.95,56.68-88.11,110.4,4.84,53.72,52.32,93.34,106.03,88.5,53.72-4.84,93.34-52.32,88.5-106.03,3.53,39.16-38.53,74.96-77.7,78.49Z"/>
    </g>
  </g>
</svg>