<?xml version="1.0" encoding="UTF-8"?>
<svg id="Layer_2" xmlns="http://www.w3.org/2000/svg" xmlns:xlink="http://www.w3.org/1999/xlink" viewBox="0 0 486.5 1047.91">
  <defs>
    <style>
      .cls-1 {
        fill: url(#linear-gradient);
      }
    </style>
    <linearGradient id="linear-gradient" x1="579.06" y1="1292.3" x2="169.24" y2="449.77" gradientTransform="translate(398.69 -310.8) rotate(32.66)" gradientUnits="userSpaceOnUse">
      <stop offset=".36" stop-color="#ffcd03"/>
      <stop offset=".81" stop-color="#dc7354"/>
      <stop offset="1" stop-color="#942e40"/>
    </linearGradient>
  </defs>
  <g id="Layer_10">
    <path class="cls-1" d="M138.18,669.87c-68.58,6.18-129.36-43.02-138.18-110.69,7.45,52.64,54.96,90.75,108.51,85.92,55.28-4.98,96.05-53.83,91.06-109.11-3.08-34.16-22.92-62.76-50.66-78.46-1.17-.66-2.36-1.3-3.56-1.91-16.84-9.48-31.38-22.7-42.45-38.64-12.21-17.59-20.19-38.47-22.25-61.31-3.88-43.07,14.1-83.05,44.76-109.04-13.2,22.23-19.81,48.65-17.31,76.37,4.1,45.5,31.67,83.23,69.67,102.37,2.08,1.05,4.18,2.05,6.32,2.98,19.05,9.6,35.47,23.85,47.66,41.41,12.21,17.59,20.19,38.47,22.25,61.31,6.34,70.31-45.52,132.44-115.83,138.78ZM276.41,531.18c4.84,53.72,52.71,97.71,106.43,92.87,29.98-2.7,65.69,33.33,68.18,60.94,3.53,39.16-29.8,74.18-68.96,77.71-39.16,3.53-86.95-24.17-90.48-63.33,4.84,53.72,52.31,93.34,106.03,88.5,53.72-4.84,93.34-52.32,88.5-106.03-4.84-53.72-52.71-97.71-106.43-92.87-33.31,3-65.35-29.63-68.18-60.94-3.53-39.16,29.8-74.17,68.96-77.7,39.16-3.53,86.95,24.17,90.48,63.33-4.84-53.72-52.32-93.34-106.03-88.5-53.72,4.84-93.34,52.32-88.5,106.03ZM279.35,72.05c4.1,45.5-16.27,87.55-50.24,113.18-1.86,1.4-3.75,2.76-5.68,4.06-17.03,12.85-30.64,29.81-39.49,49.27-8.87,19.49-12.99,41.46-10.93,64.31,6.34,70.31,68.47,122.17,138.78,115.83,68.58-6.18,119.58-65.46,116.16-133.62,2.09,53.12-37.85,99.12-91.4,103.94-55.28,4.98-104.12-35.79-109.11-91.06-3.08-34.16,11.33-65.84,35.82-86.26,1.03-.86,2.09-1.7,3.16-2.52,14.87-12.34,26.82-27.95,34.85-45.6,8.87-19.49,12.99-41.46,10.93-64.3-3.88-43.07-28.72-79.19-63.54-99.28,16.96,19.51,28.19,44.33,30.69,72.05ZM213.31,1019.96c-39.16,3.53-78.22-24.96-81.75-64.12-2.49-27.61,26.2-69.45,56.18-72.15,53.72-4.84,92.95-56.68,88.11-110.4-4.84-53.72-52.32-93.34-106.03-88.5-53.72,4.84-93.34,52.32-88.5,106.03-3.53-39.16,38.53-74.96,77.7-78.49,39.16-3.53,78.22,24.96,81.75,64.12,2.82,31.31-22.87,69.15-56.18,72.15-53.72,4.84-92.95,56.68-88.11,110.4,4.84,53.72,52.32,93.34,106.03,88.5,53.72-4.84,93.34-52.32,88.5-106.03,3.53,39.16-38.53,74.96-77.7,78.49Z"/>
  </g>
</svg>