<?xml version="1.0" encoding="UTF-8"?>
<svg id="Layer_2" xmlns="http://www.w3.org/2000/svg" xmlns:xlink="http://www.w3.org/1999/xlink" viewBox="0 0 1117.36 246.38">
  <defs>
    <style>
      .cls-1 {
        fill: #a1bdbe;
      }

      .cls-2 {
        fill: #fbc926;
      }

      .cls-3 {
        fill: #99a991;
      }

      .cls-4 {
        fill: url(#Bluestone);
      }
    </style>
    <linearGradient id="Bluestone" x1="0" y1="123.19" x2="246.38" y2="123.19" gradientUnits="userSpaceOnUse">
      <stop offset="0" stop-color="#375270"/>
      <stop offset=".09" stop-color="#445d7a"/>
      <stop offset=".24" stop-color="#556b88"/>
      <stop offset=".41" stop-color="#5e7490"/>
      <stop offset=".62" stop-color="#627793"/>
      <stop offset=".73" stop-color="#637996"/>
      <stop offset=".81" stop-color="#6780a0"/>
      <stop offset=".89" stop-color="#6d8bb1"/>
      <stop offset=".96" stop-color="#769bc8"/>
      <stop offset="1" stop-color="#7da7d9"/>
    </linearGradient>
  </defs>
  <g id="color_variants">
    <g>
      <g>
        <circle class="cls-4" cx="123.19" cy="123.19" r="123.19"/>
        <g>
          <path class="cls-3" d="M216.17,59.45c-1.06,0-2.08.16-3.04.46-9.36-13.29-21.55-24.36-35.68-32.34-16.47-9.29-35.16-14.2-54.08-14.2-.06,0-.13,0-.19,0h-2.67v26.81h2.69c.09,0,.19,0,.28,0,19.26,0,37.52,6.54,52.27,18.57-.55,1.17-.86,2.47-.86,3.85,0,5.02,4.08,9.11,9.11,9.11s9.11-4.08,9.11-9.11-4.08-9.11-9.11-9.11c-1.7,0-3.29.47-4.65,1.28-6.89-5.65-14.52-10.19-22.8-13.54-9.8-3.96-20.11-6.1-30.69-6.38v-16.09c17.14.41,34.01,5.05,48.95,13.48,13.38,7.55,24.92,18.01,33.81,30.57-1.63,1.81-2.63,4.2-2.63,6.82,0,5.61,4.57,10.18,10.18,10.18s10.18-4.57,10.18-10.18-4.57-10.18-10.18-10.18ZM216.17,74.45c-2.66,0-4.82-2.16-4.82-4.82,0-.09,0-.18,0-.26,0-.02,0-.05,0-.07,0-.06,0-.13.02-.19,0-.02,0-.05,0-.07,0-.06.02-.13.03-.19,0-.02,0-.04,0-.06.01-.07.03-.14.04-.21,0-.01,0-.02,0-.04.02-.08.04-.15.06-.23,0,0,0,0,0-.01.58-2.02,2.43-3.5,4.63-3.5.24,0,.47.02.7.05,0,0,0,0,0,0,1.87.27,3.39,1.61,3.92,3.38,0,0,0,0,0,0,.04.15.08.29.11.45,0,0,0,0,0,.01.03.15.05.3.07.45,0,0,0,0,0,.01.01.15.02.31.02.47,0,2.66-2.16,4.82-4.82,4.82Z"/>
          <path class="cls-3" d="M123.19,206.21c-19.18,0-37.4-6.54-52.13-18.57.55-1.17.86-2.47.86-3.85,0-5.02-4.08-9.11-9.11-9.11s-9.11,4.08-9.11,9.11,4.08,9.11,9.11,9.11c1.7,0,3.29-.47,4.65-1.28,15.04,12.36,33.52,19.33,53.06,19.91v16.08c-17.05-.5-33.83-5.18-48.7-13.6-13.31-7.54-24.79-17.96-33.63-30.44,1.63-1.81,2.63-4.2,2.63-6.82,0-5.61-4.57-10.18-10.18-10.18s-10.18,4.57-10.18,10.18,4.57,10.18,10.18,10.18c1.06,0,2.08-.16,3.04-.46,9.31,13.2,21.43,24.23,35.5,32.2,16.44,9.32,35.12,14.28,54.01,14.34h2.69s0-26.8,0-26.8h-2.68ZM30.63,181.57c-.24,0-.47-.02-.69-.05,0,0,0,0,0,0-1.87-.27-3.39-1.61-3.92-3.38,0,0,0,0,0,0-.04-.15-.08-.29-.11-.45,0,0,0,0,0-.01-.03-.15-.05-.3-.07-.46,0,0,0,0,0-.01-.01-.15-.02-.31-.02-.47,0-2.66,2.16-4.82,4.82-4.82s4.82,2.16,4.82,4.82c0,.09,0,.18,0,.26,0,.02,0,.05,0,.07,0,.06,0,.13-.02.19,0,.02,0,.05,0,.07,0,.06-.02.13-.03.19,0,.02,0,.04,0,.06-.01.07-.03.14-.04.21,0,.01,0,.02,0,.04-.02.08-.04.15-.06.23,0,0,0,0,0,.01-.58,2.02-2.43,3.5-4.63,3.5Z"/>
          <path class="cls-3" d="M233,120.51h-26.8v2.69c.07,19.36-6.47,37.73-18.56,52.55-1.17-.55-2.47-.86-3.85-.86-5.02,0-9.11,4.08-9.11,9.11s4.08,9.11,9.11,9.11,9.11-4.08,9.11-9.11c0-1.7-.47-3.29-1.28-4.65,5.65-6.89,10.19-14.52,13.54-22.8,3.96-9.8,6.1-20.11,6.38-30.69h16.09c-.41,17.14-5.05,34.01-13.48,48.95-7.55,13.38-18.01,24.92-30.57,33.81-1.81-1.63-4.2-2.63-6.82-2.63-5.61,0-10.18,4.57-10.18,10.18s4.57,10.18,10.18,10.18,10.18-4.57,10.18-10.18c0-1.06-.16-2.08-.46-3.04,13.29-9.36,24.36-21.55,32.34-35.68,9.32-16.52,14.24-35.29,14.2-54.27v-2.67ZM178.14,220.79h0c-.15.04-.3.08-.45.11,0,0,0,0,0,0-.15.03-.3.05-.46.07,0,0,0,0-.01,0-.15.02-.31.02-.47.02h0s-.01,0-.02,0c-2.54,0-4.62-1.98-4.79-4.48,0-.11-.01-.22-.01-.34s0-.23.01-.34c.17-2.5,2.25-4.47,4.79-4.48,0,0,.01,0,.02,0h0c.09,0,.18,0,.26,0,.02,0,.05,0,.07,0,.07,0,.13,0,.19.02.02,0,.05,0,.07,0,.07,0,.13.02.19.03.02,0,.04,0,.05,0,.07.01.14.03.21.04.01,0,.02,0,.04,0,.08.02.15.04.23.06,0,0,0,0,0,0,2.02.58,3.5,2.43,3.5,4.63s-1.44,4.02-3.43,4.62Z"/>
          <path class="cls-3" d="M62.81,38.18c1.81,1.63,4.2,2.63,6.82,2.63,5.61,0,10.18-4.57,10.18-10.18s-4.57-10.18-10.18-10.18-10.18,4.57-10.18,10.18c0,1.06.16,2.08.46,3.04-13.2,9.31-24.23,21.43-32.2,35.5-9.32,16.44-14.28,35.12-14.34,54.01v2.69s26.8,0,26.8,0v-2.68c0-19.18,6.54-37.4,18.57-52.13,1.17.55,2.47.86,3.85.86,5.02,0,9.11-4.08,9.11-9.11s-4.08-9.11-9.11-9.11-9.11,4.08-9.11,9.11c0,1.7.47,3.29,1.28,4.65-12.36,15.04-19.33,33.52-19.91,53.06h-16.08c.5-17.05,5.18-33.83,13.6-48.7,7.54-13.31,17.96-24.79,30.44-33.63ZM68.23,26.02s0,0,0,0c.15-.04.29-.08.45-.11,0,0,0,0,0,0,.15-.03.3-.05.46-.07,0,0,0,0,.01,0,.15-.01.31-.02.47-.02h0s0,0,.01,0c2.57,0,4.67,2.03,4.8,4.57,0,.08,0,.16,0,.25s0,.17,0,.25c-.13,2.54-2.23,4.57-4.8,4.57,0,0,0,0-.01,0h0c-.09,0-.18,0-.26,0-.02,0-.05,0-.07,0-.06,0-.13,0-.19-.02-.02,0-.05,0-.07,0-.07,0-.13-.02-.19-.03-.02,0-.04,0-.06,0-.07-.01-.14-.03-.21-.04-.01,0-.02,0-.04,0-.08-.02-.15-.04-.23-.06,0,0,0,0-.01,0-2.02-.58-3.5-2.43-3.5-4.63s1.44-4.02,3.43-4.61Z"/>
        </g>
        <g>
          <path class="cls-1" d="M118.74,77.45h-9.52l-3.21,5.57h-47.69l-2.32,4.02,5.08,8.8-3.75,6.49,5.3,9.17h10.59l5.3-9.17-5.3-9.17h-7.5l-2.76-4.79h43.05l3.21,5.57h9.52l4.76-8.24-4.76-8.24ZM65.5,98.15h4.82l2.41,4.17-2.41,4.17h-4.82l-2.41-4.17,2.41-4.17Z"/>
          <path class="cls-1" d="M90.83,120.78l4.76-8.24-4.76-8.24h-9.52l-4.76,8.24,3.21,5.57-23.85,41.3,2.32,4.02h10.16l3.75,6.49h10.59l5.3-9.17-5.3-9.17h-10.59l-3.75,6.49h-5.53l21.53-37.29h6.43ZM75.04,156.57h4.82l2.41,4.17-2.41,4.17h-4.82l-2.41-4.17,2.41-4.17Z"/>
          <path class="cls-1" d="M138.24,172.14h-10.59l-5.3,9.17,3.75,6.49-2.76,4.79-21.53-37.29,3.21-5.57-4.76-8.24h-9.52l-4.76,8.24,4.76,8.24h6.43l23.85,41.3h4.64l5.08-8.8h7.5l5.3-9.17-5.3-9.17ZM135.35,185.49h-4.82l-2.41-4.17,2.41-4.17h4.82l2.41,4.17-2.41,4.17Z"/>
          <path class="cls-1" d="M185.31,150.49l3.75-6.49-5.3-9.17h-10.59l-5.3,9.17,5.3,9.17h7.5l2.76,4.79h-43.05l-3.21-5.57h-9.52l-4.76,8.24,4.76,8.24h9.52l3.21-5.57h47.69l2.32-4.02-5.08-8.8ZM180.88,148.17h-4.82l-2.41-4.17,2.41-4.17h4.82l2.41,4.17-2.41,4.17Z"/>
          <path class="cls-1" d="M190.6,87.03l-2.32-4.02h-10.16l-3.75-6.49h-10.59l-5.3,9.17,5.3,9.17h10.59l3.75-6.49h5.53l-21.53,37.29h-6.43l-4.76,8.24,4.76,8.24h9.52l4.76-8.24-3.21-5.57,23.85-41.3ZM171.49,89.87h-4.82l-2.41-4.17,2.41-4.17h4.82l2.41,4.17-2.41,4.17Z"/>
          <path class="cls-1" d="M155.84,88.18h-6.43l-23.85-41.3h-4.64l-5.08,8.8h-7.5l-5.3,9.17,5.3,9.17h10.59l5.3-9.17-3.75-6.49,2.76-4.79,21.53,37.29-3.21,5.57,4.76,8.24h9.52l4.76-8.24-4.76-8.24ZM116.05,69.03h-4.82l-2.41-4.17,2.41-4.17h4.82l2.41,4.17-2.41,4.17Z"/>
        </g>
        <g>
          <path class="cls-2" d="M114.23,108.38l-1.19,2.01h24c.36,0,.64.29.64.64s-.29.64-.64.64h-24.76l-2.2,3.72h35.43l4.15-7.02h-35.43Z"/>
          <path class="cls-2" d="M107.55,119.68l-1.25,2.12h13.11c.35,0,.64.29.64.64s-.29.64-.64.64h-13.87l-2.14,3.62h23.79l4.15-7.02h-23.79Z"/>
          <path class="cls-2" d="M100.87,130.98l-1.19,2.01h24c.36,0,.64.29.64.64s-.29.64-.64.64h-24.76l-2.2,3.72h35.43l4.15-7.02h-35.43Z"/>
        </g>
      </g>
      <g>
        <g>
          <path class="cls-3" d="M464.23,211.4c1.13-2.94,2.68-6.18,4.92-9.72l31.95-51.82h-19.61l10.84-18.25h42.67l-44.48,73.31c-.75,1.18-1.6,2.65-2.51,5.01-1.81,4.71.93,6.77,5.05,6.77s7.1-.88,12.59-2.94l-1.93,17.37c-9.3,3.53-16.81,4.71-25.35,4.71-13.84,0-20.04-9.13-14.14-24.44Z"/>
          <path class="cls-3" d="M525.09,202.86c10.08-26.5,37-44.16,59.54-44.16,19.32,0,26.03,11.78,19.52,29.15-2.43,6.48-6.84,13.54-8.72,16.19h-53.31l8.07-14.72h37.27l-7.44,3.39c1.05-1.62,2.21-3.53,2.88-5.3,2.72-7.21.24-10.75-5.63-10.75-7.62,0-21.55,7.36-28.35,25.32-4.79,12.66,1.33,15.9,9.27,15.9s15.22-2.94,23.53-7.07l1.78,15.6c-11.45,6.18-24.44,9.42-37.69,9.42-18.84,0-29.46-10.01-20.73-32.97Z"/>
          <path class="cls-3" d="M635.49,160.47h16.69l-3.51,9.42h.59c6.09-5.74,14.71-11.19,23.49-11.19,6.3,0,8.15,3.68,5.85,11.48l-1.94.88c7.69-8.1,16.29-12.36,24.79-12.36,7.03,0,9.68,4.71,6.54,13.25-.98,2.65-1.97,4.56-3.59,7.36l-31.36,54.76h-21.49l28.82-50.05c.84-1.47,1.06-2.06,1.27-2.65.76-2.06.1-2.65-1.37-2.65-2.64,0-5.35,1.77-9.27,6.03l-28.43,49.31h-18.25l29.06-50.05c.84-1.47,1.06-2.06,1.28-2.65.77-2.06-.04-2.65-1.65-2.65-2.64,0-5.73,1.62-9.93,6.18l-27.74,49.17h-21.78l41.93-73.6Z"/>
          <path class="cls-3" d="M699.16,207.28c9.97-27.09,36.61-48.58,56.82-48.58,9.37,0,14.82,3.53,16,9.13h.59l5.9-7.36h18.74l-41.38,73.6h-19.13l3.54-9.72h-.59c-9.45,7.36-19.5,11.48-27.3,11.48-14.57,0-19.91-10.3-13.19-28.56ZM747.96,206.4l13.21-22.96c-.66-3.83-4.71-5.59-7.79-5.59-9.97,0-23.05,10.89-28.76,26.5-3.18,8.68-1.29,12.36,3.7,12.36,4.7,0,11.95-2.94,19.63-10.3Z"/>
          <path class="cls-3" d="M825.19,160.47h18.89l-4.67,11.78h.59c9.17-6.77,22.44-13.54,31.81-13.54,12.01,0,16.72,6.48,12.21,19.14-1.15,3.24-2.96,7.07-4.95,10.6l-25.39,45.63h-23.55l23.82-42.69c1.53-2.65,2.77-4.86,3.4-6.62,1.48-4.12-.04-6.03-3.85-6.03-4.84,0-12.96,3.83-21.43,11.48l-24.31,43.87h-23.55l40.99-73.6Z"/>
          <path class="cls-3" d="M874.94,203.75c9.62-27.09,36.79-45.04,60.8-45.04,13.18,0,20.76,6.77,23.66,13.54l-18.61,12.95c-2.94-5-7.68-7.36-13.25-7.36-9.97,0-23.29,10.3-28.07,23.85-3.64,10.3,2.04,15.01,9.98,15.01,6.91,0,12.66-3.39,19.45-7.65l2.51,15.9c-9.59,6.77-20.45,10.89-32.23,10.89-19.14,0-31.86-10.6-24.23-32.09Z"/>
          <path class="cls-3" d="M949.05,202.86c9.25-26.5,35.62-44.16,58.17-44.16,19.32,0,26.4,11.78,20.43,29.15-2.23,6.48-6.42,13.54-8.21,16.19h-53.32l7.62-14.72h37.27l-7.33,3.39c1-1.62,2.1-3.53,2.71-5.3,2.49-7.21-.1-10.75-5.96-10.75-7.62,0-21.32,7.36-27.56,25.32-4.4,12.66,1.83,15.9,9.77,15.9s15.13-2.94,23.31-7.07l2.27,15.6c-11.25,6.18-24.15,9.42-37.4,9.42-18.84,0-29.77-10.01-21.76-32.97Z"/>
          <path class="cls-3" d="M1056.31,160.32l18.98.15-8.27,19.14h.59c12.13-13.25,25.85-20.9,36.39-20.9,6.44,0,11.31,1.18,13.35,2.94l-15.06,20.31c-2.68-1.62-5.95-2.36-10.05-2.36-9.09,0-22.46,9.13-35.49,24.14l-16.51,30.32h-23.55l39.62-73.75Z"/>
        </g>
        <g>
          <path class="cls-2" d="M322.97,78.04l-6.75,11.42h136.37c2.02,0,3.65,1.63,3.65,3.65s-1.63,3.65-3.65,3.65h-140.69l-12.51,21.16h201.32l23.57-39.88h-201.32Z"/>
          <path class="cls-2" d="M285,142.27l-7.11,12.03h74.51c2.02,0,3.65,1.63,3.65,3.65s-1.63,3.65-3.65,3.65h-78.83l-12.15,20.55h135.22l23.57-39.88h-135.22Z"/>
          <path class="cls-2" d="M247.03,206.5l-6.75,11.42h136.37c2.02,0,3.65,1.63,3.65,3.65s-1.63,3.65-3.65,3.65h-140.69l-12.51,21.16h201.32l23.57-39.88h-201.32Z"/>
        </g>
      </g>
    </g>
  </g>
</svg>