<?xml version="1.0" encoding="UTF-8"?>
<svg id="Layer_2" xmlns="http://www.w3.org/2000/svg" xmlns:xlink="http://www.w3.org/1999/xlink" viewBox="0 0 554.79 554.79">
  <defs>
    <style>
      .cls-1 {
        fill: #a1bdbe;
      }

      .cls-2 {
        fill: #fbc926;
      }

      .cls-3 {
        fill: #99a991;
      }

      .cls-4 {
        fill: url(#Bluestone);
      }
    </style>
    <linearGradient id="Bluestone" x1="0" y1="277.4" x2="554.79" y2="277.4" gradientUnits="userSpaceOnUse">
      <stop offset="0" stop-color="#375270"/>
      <stop offset=".09" stop-color="#445d7a"/>
      <stop offset=".24" stop-color="#556b88"/>
      <stop offset=".41" stop-color="#5e7490"/>
      <stop offset=".62" stop-color="#627793"/>
      <stop offset=".73" stop-color="#637996"/>
      <stop offset=".81" stop-color="#6780a0"/>
      <stop offset=".89" stop-color="#6d8bb1"/>
      <stop offset=".96" stop-color="#769bc8"/>
      <stop offset="1" stop-color="#7da7d9"/>
    </linearGradient>
  </defs>
  <g id="color_variants">
    <g>
      <circle class="cls-4" cx="277.4" cy="277.4" r="277.4"/>
      <g>
        <path class="cls-3" d="M486.78,133.87c-2.38,0-4.68.37-6.84,1.04-21.08-29.93-48.52-54.86-80.35-72.82-37.08-20.93-79.18-31.98-121.77-31.98-.14,0-.29,0-.43,0h-6.02v60.36l6.05-.02c.21,0,.42,0,.64,0,43.36,0,84.48,14.72,117.7,41.82-1.23,2.63-1.93,5.57-1.93,8.67,0,11.31,9.2,20.5,20.5,20.5s20.5-9.2,20.5-20.5-9.2-20.5-20.5-20.5c-3.82,0-7.4,1.05-10.46,2.88-15.51-12.73-32.7-22.95-51.33-30.48-22.06-8.92-45.28-13.75-69.11-14.38v-36.23c38.59.93,76.58,11.37,110.23,30.36,30.12,17,56.11,40.56,76.12,68.84-3.68,4.07-5.92,9.45-5.92,15.35,0,12.64,10.28,22.92,22.92,22.92s22.92-10.28,22.92-22.92-10.28-22.92-22.92-22.92ZM486.78,167.64c-5.99,0-10.85-4.86-10.85-10.85,0-.2,0-.4.02-.59,0-.05,0-.1.01-.15,0-.15.02-.29.04-.44,0-.05.01-.1.02-.15.02-.15.04-.29.06-.43,0-.04.02-.08.02-.13.03-.16.06-.31.09-.47,0-.03.01-.05.02-.08.04-.17.08-.34.13-.51,0,0,0-.02,0-.03,1.3-4.54,5.48-7.87,10.44-7.87.53,0,1.05.04,1.57.11,0,0,0,0,0,0,4.2.61,7.62,3.62,8.82,7.6,0,0,0,0,0,0,.1.33.18.66.25,1,0,0,0,.02,0,.02.07.34.12.68.15,1.02,0,0,0,.02,0,.03.03.35.05.7.05,1.06,0,5.99-4.86,10.85-10.85,10.85Z"/>
        <path class="cls-3" d="M277.4,464.34c-43.18,0-84.21-14.73-117.4-41.82,1.24-2.64,1.93-5.57,1.93-8.67,0-11.31-9.2-20.5-20.5-20.5s-20.5,9.2-20.5,20.5,9.2,20.5,20.5,20.5c3.82,0,7.4-1.05,10.47-2.88,33.88,27.83,75.49,43.52,119.47,44.84v36.21c-38.39-1.13-76.18-11.67-109.66-30.63-29.98-16.99-55.83-40.44-75.73-68.53,3.67-4.07,5.92-9.45,5.92-15.35,0-12.64-10.28-22.92-22.92-22.92s-22.92,10.28-22.92,22.92,10.28,22.92,22.92,22.92c2.38,0,4.68-.37,6.84-1.04,20.96,29.73,48.26,54.55,79.94,72.5,37.03,20.98,79.08,32.15,121.61,32.3l6.05.02v-60.36h-6.03ZM68.98,408.86c-.53,0-1.05-.04-1.56-.11,0,0,0,0,0,0-4.2-.61-7.62-3.62-8.82-7.6,0,0,0,0,0,0-.1-.33-.18-.66-.25-1,0,0,0-.02,0-.02-.07-.34-.12-.68-.15-1.02,0,0,0-.02,0-.03-.03-.35-.05-.7-.05-1.06,0-5.99,4.86-10.85,10.85-10.85s10.85,4.86,10.85,10.85c0,.2,0,.39-.02.59,0,.05,0,.1-.01.16,0,.15-.02.29-.04.43,0,.05-.01.1-.02.15-.02.15-.04.29-.06.44,0,.04-.01.08-.02.13-.03.16-.06.31-.09.47,0,.03-.01.05-.02.08-.04.17-.08.34-.13.51,0,0,0,.02,0,.03-1.3,4.54-5.48,7.87-10.44,7.87Z"/>
        <path class="cls-3" d="M524.67,271.37h-60.35l.02,6.05c.14,43.6-14.59,84.96-41.82,118.34-2.63-1.23-5.57-1.93-8.67-1.93-11.31,0-20.5,9.2-20.5,20.5s9.2,20.5,20.5,20.5,20.5-9.2,20.5-20.5c0-3.82-1.05-7.4-2.88-10.46,12.73-15.51,22.95-32.7,30.48-51.33,8.92-22.06,13.75-45.28,14.38-69.11h36.23c-.92,38.6-11.37,76.58-30.36,110.23-17,30.12-40.56,56.11-68.84,76.12-4.07-3.68-9.45-5.92-15.35-5.92-12.64,0-22.92,10.28-22.92,22.92s10.28,22.92,22.92,22.92,22.92-10.28,22.92-22.92c0-2.38-.37-4.68-1.04-6.84,29.93-21.08,54.86-48.52,72.82-80.35,21-37.21,32.05-79.46,31.98-122.2v-6.02ZM401.14,497.17h0c-.33.1-.66.18-1.01.25,0,0-.01,0-.02,0-.34.07-.68.12-1.03.15,0,0-.02,0-.03,0-.35.03-.7.05-1.06.05h0s-.03,0-.04,0c-5.72-.02-10.4-4.47-10.78-10.09-.02-.25-.03-.5-.03-.76s.01-.51.03-.76c.39-5.63,5.06-10.07,10.78-10.09.01,0,.03,0,.04,0h0c.2,0,.4,0,.59.02.05,0,.1,0,.15.01.15,0,.29.02.44.04.05,0,.1.01.15.02.15.02.29.04.44.06.04,0,.08.01.12.02.16.03.31.06.47.09.03,0,.05.01.08.02.17.04.35.08.52.13,0,0,.01,0,.02,0,4.55,1.3,7.87,5.48,7.87,10.44s-3.25,9.05-7.72,10.39Z"/>
        <path class="cls-3" d="M141.44,85.98c4.07,3.67,9.45,5.92,15.35,5.92,12.64,0,22.92-10.28,22.92-22.92s-10.28-22.92-22.92-22.92-22.92,10.28-22.92,22.92c0,2.38.37,4.68,1.04,6.84-29.73,20.96-54.55,48.26-72.5,79.94-20.98,37.03-32.15,79.08-32.3,121.61l-.02,6.05h60.36v-6.03c0-43.18,14.73-84.21,41.82-117.4,2.64,1.24,5.57,1.93,8.67,1.93,11.31,0,20.5-9.2,20.5-20.5s-9.2-20.5-20.5-20.5-20.5,9.2-20.5,20.5c0,3.82,1.05,7.4,2.88,10.47-27.83,33.88-43.52,75.49-44.84,119.47h-36.21c1.13-38.39,11.67-76.18,30.63-109.66,16.99-29.98,40.44-55.83,68.53-75.73ZM153.65,58.59s0,0,0,0c.33-.1.66-.18,1-.25,0,0,.01,0,.02,0,.34-.07.68-.12,1.02-.15,0,0,.02,0,.03,0,.35-.03.7-.05,1.06-.05h0s.02,0,.02,0c5.8.01,10.53,4.57,10.82,10.3,0,.19.01.37.01.56s0,.37-.01.56c-.29,5.73-5.02,10.28-10.82,10.3,0,0-.02,0-.02,0h0c-.2,0-.39,0-.59-.02-.05,0-.1,0-.15-.01-.15,0-.29-.02-.44-.04-.05,0-.1-.01-.15-.02-.15-.02-.29-.04-.44-.06-.04,0-.08-.01-.12-.02-.16-.03-.31-.06-.47-.09-.03,0-.05-.01-.08-.02-.17-.04-.34-.08-.51-.13,0,0-.02,0-.03,0-4.54-1.3-7.87-5.48-7.87-10.44s3.25-9.04,7.72-10.39Z"/>
      </g>
      <g>
        <path class="cls-1" d="M267.37,174.4h-21.44l-7.24,12.53h-107.4l-5.22,9.05,11.44,19.82-8.44,14.62,11.92,20.65h23.85l11.92-20.65-11.92-20.65h-16.88l-6.22-10.78h96.95l7.24,12.53h21.44l10.72-18.56-10.72-18.56ZM147.5,221.02h10.85l5.43,9.4-5.43,9.4h-10.85l-5.43-9.4,5.43-9.4Z"/>
        <path class="cls-1" d="M204.53,271.98l10.72-18.56-10.72-18.56h-21.44l-10.72,18.56,7.24,12.53-53.7,93.01,5.22,9.05h22.89l8.44,14.62h23.85l11.92-20.65-11.92-20.65h-23.85l-8.44,14.62h-12.44l48.48-83.96h14.47ZM168.97,352.57h10.85l5.43,9.4-5.43,9.4h-10.85l-5.43-9.4,5.43-9.4Z"/>
        <path class="cls-1" d="M311.28,387.62h-23.85l-11.92,20.65,8.44,14.62-6.22,10.78-48.48-83.96,7.24-12.53-10.72-18.56h-21.44l-10.72,18.56,10.72,18.56h14.47l53.7,93.01h10.44l11.44-19.82h16.88l11.92-20.65-11.92-20.65ZM304.78,417.68h-10.85l-5.43-9.4,5.43-9.4h10.85l5.43,9.4-5.43,9.4Z"/>
        <path class="cls-1" d="M417.27,338.87l8.44-14.62-11.92-20.65h-23.85l-11.92,20.65,11.92,20.65h16.89l6.22,10.78h-96.95l-7.24-12.53h-21.44l-10.72,18.56,10.72,18.56h21.44l7.24-12.53h107.4l5.22-9.05-11.44-19.82ZM407.3,333.65h-10.85l-5.43-9.4,5.43-9.4h10.85l5.43,9.4-5.43,9.4Z"/>
        <path class="cls-1" d="M429.2,195.98l-5.22-9.05h-22.89l-8.44-14.62h-23.85l-11.92,20.65,11.92,20.65h23.85l8.44-14.62h12.44l-48.48,83.96h-14.47l-10.72,18.56,10.72,18.56h21.44l10.72-18.56-7.24-12.53,53.7-93.01ZM386.15,202.36h-10.85l-5.43-9.4,5.43-9.4h10.85l5.43,9.4-5.43,9.4Z"/>
        <path class="cls-1" d="M350.91,198.57h-14.47l-53.7-93.01h-10.44l-11.44,19.82h-16.89l-11.92,20.65,11.92,20.65h23.85l11.92-20.65-8.44-14.62,6.22-10.78,48.48,83.96-7.24,12.53,10.72,18.56h21.44l10.72-18.56-10.72-18.56ZM261.32,155.43h-10.85l-5.43-9.4,5.43-9.4h10.85l5.43,9.4-5.43,9.4Z"/>
      </g>
      <g>
        <path class="cls-2" d="M257.23,244.05l-2.67,4.52h54.03c.8,0,1.45.65,1.45,1.45s-.65,1.45-1.45,1.45h-55.75l-4.96,8.38h79.77l9.34-15.8h-79.77Z"/>
        <path class="cls-2" d="M242.18,269.5l-2.82,4.76h29.52c.8,0,1.45.65,1.45,1.45s-.65,1.45-1.45,1.45h-31.23l-4.81,8.14h53.58l9.34-15.8h-53.58Z"/>
        <path class="cls-2" d="M227.14,294.95l-2.67,4.52h54.03c.8,0,1.45.65,1.45,1.45s-.65,1.45-1.45,1.45h-55.75l-4.96,8.38h79.77l9.34-15.8h-79.77Z"/>
      </g>
    </g>
  </g>
</svg>