<?xml version="1.0" encoding="UTF-8"?>
<svg id="Layer_2" xmlns="http://www.w3.org/2000/svg" viewBox="0 0 893.9 168.34">
  <defs>
    <style>
      .cls-1 {
        fill: #fbc926;
      }

      .cls-2 {
        fill: #99a991;
      }
    </style>
  </defs>
  <g id="color_variants">
    <g>
      <g>
        <path class="cls-2" d="M240.76,133.36c1.13-2.94,2.68-6.18,4.92-9.72l31.95-51.82h-19.61l10.84-18.25h42.67l-44.48,73.31c-.75,1.18-1.6,2.65-2.51,5.01-1.81,4.71.93,6.77,5.05,6.77s7.1-.88,12.59-2.94l-1.93,17.37c-9.3,3.53-16.81,4.71-25.35,4.71-13.84,0-20.04-9.13-14.14-24.44Z"/>
        <path class="cls-2" d="M301.63,124.83c10.08-26.5,37-44.16,59.54-44.16,19.32,0,26.03,11.78,19.52,29.15-2.43,6.48-6.84,13.54-8.72,16.19h-53.31l8.07-14.72h37.27l-7.44,3.39c1.05-1.62,2.21-3.53,2.88-5.3,2.72-7.21.24-10.75-5.63-10.75-7.62,0-21.55,7.36-28.35,25.32-4.79,12.66,1.33,15.9,9.27,15.9s15.22-2.94,23.53-7.07l1.78,15.6c-11.45,6.18-24.44,9.42-37.69,9.42-18.84,0-29.46-10.01-20.73-32.97Z"/>
        <path class="cls-2" d="M412.03,82.43h16.69l-3.51,9.42h.59c6.09-5.74,14.71-11.19,23.49-11.19,6.3,0,8.15,3.68,5.85,11.48l-1.94.88c7.69-8.1,16.29-12.36,24.79-12.36,7.03,0,9.68,4.71,6.54,13.25-.98,2.65-1.97,4.56-3.59,7.36l-31.36,54.76h-21.49l28.82-50.05c.84-1.47,1.06-2.06,1.27-2.65.76-2.06.1-2.65-1.37-2.65-2.64,0-5.35,1.77-9.27,6.03l-28.43,49.31h-18.25l29.06-50.05c.84-1.47,1.06-2.06,1.28-2.65.77-2.06-.04-2.65-1.65-2.65-2.64,0-5.73,1.62-9.93,6.18l-27.74,49.17h-21.78l41.93-73.6Z"/>
        <path class="cls-2" d="M475.7,129.24c9.97-27.09,36.61-48.58,56.82-48.58,9.37,0,14.82,3.53,16,9.13h.59l5.9-7.36h18.74l-41.38,73.6h-19.13l3.54-9.72h-.59c-9.45,7.36-19.5,11.48-27.3,11.48-14.57,0-19.91-10.3-13.19-28.56ZM524.5,128.36l13.21-22.96c-.66-3.83-4.71-5.59-7.79-5.59-9.97,0-23.05,10.89-28.76,26.5-3.18,8.68-1.29,12.36,3.7,12.36,4.7,0,11.95-2.94,19.63-10.3Z"/>
        <path class="cls-2" d="M601.73,82.43h18.89l-4.67,11.78h.59c9.17-6.77,22.44-13.54,31.81-13.54,12.01,0,16.72,6.48,12.21,19.14-1.15,3.24-2.96,7.07-4.95,10.6l-25.39,45.63h-23.55l23.82-42.69c1.53-2.65,2.77-4.86,3.4-6.62,1.48-4.12-.04-6.03-3.85-6.03-4.84,0-12.96,3.83-21.43,11.48l-24.31,43.87h-23.55l40.99-73.6Z"/>
        <path class="cls-2" d="M651.47,125.71c9.62-27.09,36.79-45.04,60.8-45.04,13.18,0,20.76,6.77,23.66,13.54l-18.61,12.95c-2.94-5-7.68-7.36-13.25-7.36-9.97,0-23.29,10.3-28.07,23.85-3.64,10.3,2.04,15.01,9.98,15.01,6.91,0,12.66-3.39,19.45-7.65l2.51,15.9c-9.59,6.77-20.45,10.89-32.23,10.89-19.14,0-31.86-10.6-24.23-32.09Z"/>
        <path class="cls-2" d="M725.59,124.83c9.25-26.5,35.62-44.16,58.17-44.16,19.32,0,26.4,11.78,20.43,29.15-2.23,6.48-6.42,13.54-8.21,16.19h-53.32l7.62-14.72h37.27l-7.33,3.39c1-1.62,2.1-3.53,2.71-5.3,2.49-7.21-.1-10.75-5.96-10.75-7.62,0-21.32,7.36-27.56,25.32-4.4,12.66,1.83,15.9,9.77,15.9s15.13-2.94,23.31-7.07l2.27,15.6c-11.25,6.18-24.15,9.42-37.4,9.42-18.84,0-29.77-10.01-21.76-32.97Z"/>
        <path class="cls-2" d="M832.85,82.28l18.98.15-8.27,19.14h.59c12.13-13.25,25.85-20.9,36.39-20.9,6.44,0,11.31,1.18,13.35,2.94l-15.06,20.31c-2.68-1.62-5.95-2.36-10.05-2.36-9.09,0-22.46,9.13-35.49,24.14l-16.51,30.32h-23.55l39.62-73.75Z"/>
      </g>
      <g>
        <path class="cls-1" d="M99.51,0l-6.75,11.42h136.37c2.02,0,3.65,1.63,3.65,3.65s-1.63,3.65-3.65,3.65H88.44l-12.51,21.16h201.32L300.83,0H99.51Z"/>
        <path class="cls-1" d="M61.54,64.23l-7.11,12.03h74.51c2.02,0,3.65,1.63,3.65,3.65s-1.63,3.65-3.65,3.65H50.11l-12.15,20.55h135.22l23.57-39.88H61.54Z"/>
        <path class="cls-1" d="M23.57,128.46l-6.75,11.42h136.37c2.02,0,3.65,1.63,3.65,3.65s-1.63,3.65-3.65,3.65H12.51L0,168.34h201.32l23.57-39.88H23.57Z"/>
      </g>
    </g>
  </g>
</svg>