<?xml version="1.0" encoding="UTF-8"?>
<svg id="Layer_2" data-name="Layer 2" xmlns="http://www.w3.org/2000/svg" viewBox="0 0 371.05 371.05">
  <defs>
    <style>
      .cls-1 {
        fill: #ec008c;
      }

      .cls-1, .cls-2 {
        stroke-width: 0px;
      }

      .cls-2 {
        fill: #fff;
      }
    </style>
  </defs>
  <g id="Layer_24_copy" data-name="Layer 24 copy">
    <g>
      <rect class="cls-1" width="371.05" height="371.05" rx="33.49" ry="33.49"/>
      <g>
        <rect class="cls-2" x="274.02" y="205.67" width="17.73" height="85.64"/>
        <polygon class="cls-2" points="219.78 26.84 219.78 42.08 274.02 42.08 274.02 112.47 291.75 112.47 291.75 42.08 345.99 42.08 345.99 26.84 219.78 26.84"/>
      </g>
      <g>
        <path class="cls-2" d="M29.02,134.22h12.27c12.94,0,25.08,9.19,25.08,24.95s-12.07,25.08-25.08,25.08h-12.27v-50.03ZM35.19,178.76h5.9c9.93,0,19.05-6.77,19.05-19.58s-9.12-19.45-19.05-19.45h-5.9v39.04Z"/>
        <path class="cls-2" d="M113.39,165.01c0,11.4-9.12,21.19-21.6,21.19s-21.6-9.79-21.6-21.19,9.12-21.19,21.6-21.19,21.6,9.79,21.6,21.19ZM76.3,165.01c0,8.65,6.51,16.16,15.49,16.16s15.49-7.58,15.49-16.16-6.51-16.16-15.49-16.16-15.49,7.51-15.49,16.16Z"/>
        <path class="cls-2" d="M144.71,179.43c-2.48,3.09-7.04,5.84-12.61,5.84-8.59,0-13.95-5.5-13.95-14.42v-25.08h5.77v23.41c0,8.32,4.9,10.93,10.19,10.93,4.49,0,10.4-3.35,10.4-10.26v-24.08h5.77v38.5h-5.57v-4.83Z"/>
        <path class="cls-2" d="M178.85,185.93c-6.91,0-12.88-3.42-16.57-8.52v6.84h-5.57v-52.32h5.77v20.46c3.69-5.03,9.59-8.32,16.37-8.32,11.67,0,20.32,9.79,20.32,20.99s-8.65,20.86-20.32,20.86ZM177.77,180.77c8.92,0,15.29-7.44,15.29-15.76s-6.37-15.76-15.29-15.76-15.43,7.44-15.43,15.76,6.57,15.76,15.43,15.76Z"/>
        <path class="cls-2" d="M210.1,184.26h-5.77v-52.32h5.77v52.32Z"/>
        <path class="cls-2" d="M236.99,186.2c-12.88,0-21.73-9.52-21.73-21.19s8.45-21.19,20.52-21.19c11.2,0,20.32,9.05,20.32,20.46v1.21h-34.74c.27,9.19,6.71,15.69,15.63,15.69,6.17,0,11.07-2.62,14.69-6.24l3.56,3.82c-3.89,4.09-9.99,7.44-18.24,7.44ZM221.83,160.78h27.9c-1.48-6.91-7.11-11.94-13.95-11.94s-12.48,4.83-13.95,11.94Z"/>
        <path class="cls-2" d="M280.05,139.66h-10.4v-5.43h26.96v5.43h-10.4v44.6h-6.17v-44.6Z"/>
        <path class="cls-2" d="M304.66,134.22h6.71l-6.17,18.31h-4.16l3.62-18.31Z"/>
        <path class="cls-2" d="M332.02,146.5v5.5c-2.55-1.54-5.23-2.41-7.78-2.41-3.89,0-6.44,1.81-6.44,4.63,0,2.15,1.95,3.76,7.24,7.11,9.05,5.63,11.47,8.99,11.47,13.48,0,6.44-5.3,10.46-13.15,10.53-3.49,0-8.12-1.34-11.13-2.88v-5.57c3.76,2.08,7.92,3.42,10.53,3.42,5.23-.07,7.65-2.55,7.65-5.5,0-1.68-.74-3.96-8.59-8.72-7.85-4.96-10.13-7.24-10.13-12.27,0-4.02,3.62-9.19,12.21-9.19,3.09,0,5.9.8,8.12,1.88Z"/>
      </g>
      <rect class="cls-2" x="20.04" y="192.67" width="323.95" height="4"/>
      <rect class="cls-2" x="20.04" y="121.47" width="323.95" height="4"/>
      <g>
        <path class="cls-2" d="M59.58,307.25c-2.97-1.81-6.32-2.91-9.95-2.91-10.72,0-19.63,9.18-19.63,19.24s8.91,19.46,19.63,19.46c3.63,0,6.98-1.15,9.95-2.91v2.97c-3.02,1.48-6.38,2.42-9.95,2.42-12.42,0-22.43-9.79-22.43-21.88s10.01-21.77,22.43-21.77c3.57,0,6.87.93,9.95,2.42v2.97Z"/>
        <path class="cls-2" d="M85.91,339.85c-1.98,2.86-5.88,5.11-10.34,5.11-7.26,0-11.44-4.51-11.44-11.88v-20.45h2.58v19.74c0,7.86,4.67,10.23,9.51,10.23,4.01,0,9.68-3.08,9.68-9.68v-20.29h2.58v31.56h-2.58v-4.34Z"/>
        <path class="cls-2" d="M96.8,344.19h-2.58v-31.56h2.58v5.99c1.43-2.47,4.51-5.99,8.69-5.99h1.04v2.91c-.22-.11-.66-.17-.88-.17-5.44,0-8.85,6.32-8.85,10.67v18.14Z"/>
        <path class="cls-2" d="M128.24,345.79c-6.05,0-11.33-3.52-14.29-8.47v6.87h-2.58v-42.88h2.58v18.25c2.91-5.06,8.19-8.52,14.29-8.52,9.84,0,17.1,8.25,17.1,17.37s-7.26,17.37-17.1,17.37ZM128.24,343.42c8.3,0,14.35-7.15,14.35-15.01s-6.05-15.01-14.35-15.01-14.35,7.15-14.35,15.01,6.05,15.01,14.35,15.01Z"/>
        <path class="cls-2" d="M186.46,334.29h-23.26l-4.07,9.9h-2.75l17.15-41.01h2.8l17.15,41.01h-2.97l-4.07-9.9ZM185.53,331.93l-10.61-25.95-10.72,25.95h21.33Z"/>
        <path class="cls-2" d="M199.05,337.26v19.02h-2.58v-43.65h2.58v6.87c2.97-4.95,8.25-8.47,14.29-8.47,9.84,0,17.1,8.25,17.1,17.37s-7.26,17.37-17.1,17.37c-6.1,0-11.38-3.46-14.29-8.52ZM213.34,343.42c8.3,0,14.35-7.15,14.35-15.01s-6.05-15.01-14.35-15.01-14.35,7.15-14.35,15.01,6.05,15.01,14.35,15.01Z"/>
        <path class="cls-2" d="M237.47,337.26v19.02h-2.58v-43.65h2.58v6.87c2.97-4.95,8.25-8.47,14.29-8.47,9.84,0,17.1,8.25,17.1,17.37s-7.26,17.37-17.1,17.37c-6.1,0-11.38-3.46-14.29-8.52ZM251.77,343.42c8.3,0,14.35-7.15,14.35-15.01s-6.05-15.01-14.35-15.01-14.35,7.15-14.35,15.01,6.05,15.01,14.35,15.01Z"/>
        <path class="cls-2" d="M289.26,345.79c-10.01,0-17.21-8.08-17.21-17.37s6.71-17.37,16.66-17.37c8.69,0,16.33,7.48,16.33,16.27v.27h-30.24v.77c0,8.52,6.71,15.06,14.46,15.06,5.11,0,9.62-2.47,13.08-5.94l1.65,1.98c-2.97,3.46-8.36,6.32-14.73,6.32ZM275.08,325.28h27.05c-1.04-6.54-6.98-11.88-13.41-11.88s-12.32,5.06-13.63,11.88Z"/>
        <path class="cls-2" d="M327.96,340.89c-2.09,2.42-5.28,4.34-9.02,4.34-6.16,0-10.94-4.67-10.94-10.39s4.78-10.39,10.94-10.39c3.9,0,6.98,1.65,9.02,3.9v-4.4c0-7.7-3.41-9.84-7.75-9.84-2.14,0-3.46.16-7.53.88l-.38-2.25c3.96-.77,5.44-.93,7.92-.93,7.2,0,10.33,4.23,10.33,11.11v21.28h-2.58v-3.3ZM328.07,334.84c0-4.4-3.63-8.03-9.02-8.03-5,0-8.3,3.63-8.3,8.03s3.3,8.03,8.3,8.03,9.02-3.57,9.02-8.03Z"/>
        <path class="cls-2" d="M339.01,344.19h-2.58v-42.88h2.58v42.88Z"/>
      </g>
      <g>
        <path class="cls-2" d="M188.59,205.67c-17.33,45.85-60.07,70.39-105.33,70.39h-36.51v-70.39h-17.73v85.64h57.08c52.76,0,102.22-32.76,120.86-85.64h-18.37Z"/>
        <path class="cls-2" d="M46.74,112.47V42.08h36.51c45.37,0,88.21,24.66,105.45,70.39h18.33c-18.63-52.73-68.35-85.64-120.95-85.64H29.02v85.64h17.73Z"/>
      </g>
    </g>
  </g>
</svg>